<svg width="16" height="14" viewBox="0 0 16 14" fill="none" xmlns="http://www.w3.org/2000/svg">
<path d="M6.33301 3.16667C6.33301 2.72464 6.5086 2.30072 6.82116 1.98816C7.13372 1.67559 7.55765 1.5 7.99967 1.5C8.4417 1.5 8.86562 1.67559 9.17818 1.98816C9.49075 2.30072 9.66634 2.72464 9.66634 3.16667C10.6233 3.61919 11.4392 4.3236 12.0264 5.20442C12.6136 6.08523 12.95 7.10923 12.9997 8.16667V10.6667C13.0624 11.1848 13.2459 11.6809 13.5354 12.1151C13.8248 12.5493 14.2122 12.9095 14.6663 13.1667H1.33301C1.78712 12.9095 2.17452 12.5493 2.464 12.1151C2.75348 11.6809 2.93696 11.1848 2.99967 10.6667V8.16667C3.04931 7.10923 3.38576 6.08523 3.97297 5.20442C4.56017 4.3236 5.376 3.61919 6.33301 3.16667" stroke="black" stroke-opacity="0.7" stroke-width="1.04167" stroke-linecap="round" stroke-linejoin="round"/>
</svg>
