<svg width="18" height="18" viewBox="0 0 18 18" fill="none" xmlns="http://www.w3.org/2000/svg">
<g clip-path="url(#clip0_67_6557)">
<path d="M8.84625 15.75H3.75C3.35218 15.75 2.97064 15.592 2.68934 15.3107C2.40804 15.0294 2.25 14.6478 2.25 14.25V5.25C2.25 4.85218 2.40804 4.47064 2.68934 4.18934C2.97064 3.90804 3.35218 3.75 3.75 3.75H12.75C13.1478 3.75 13.5294 3.90804 13.8107 4.18934C14.092 4.47064 14.25 4.85218 14.25 5.25V8.25" stroke="black" stroke-opacity="0.7" stroke-width="1.04167" stroke-linecap="round" stroke-linejoin="round"/>
<path d="M13.5 10.5V13.5H16.5" stroke="black" stroke-opacity="0.7" stroke-width="1.04167" stroke-linecap="round" stroke-linejoin="round"/>
<path d="M13.5 16.5C15.1569 16.5 16.5 15.1569 16.5 13.5C16.5 11.8431 15.1569 10.5 13.5 10.5C11.8431 10.5 10.5 11.8431 10.5 13.5C10.5 15.1569 11.8431 16.5 13.5 16.5Z" stroke="black" stroke-opacity="0.7" stroke-width="1.04167" stroke-linecap="round" stroke-linejoin="round"/>
<path d="M11.25 2.25V5.25" stroke="black" stroke-opacity="0.7" stroke-width="1.04167" stroke-linecap="round" stroke-linejoin="round"/>
<path d="M5.25 2.25V5.25" stroke="black" stroke-opacity="0.7" stroke-width="1.04167" stroke-linecap="round" stroke-linejoin="round"/>
<path d="M2.25 8.25H14.25" stroke="black" stroke-opacity="0.7" stroke-width="1.04167" stroke-linecap="round" stroke-linejoin="round"/>
</g>
<defs>
<clipPath id="clip0_67_6557">
<rect width="18" height="18" fill="white"/>
</clipPath>
</defs>
</svg>
