<svg width="262" height="262" viewBox="0 0 262 262" fill="none" xmlns="http://www.w3.org/2000/svg">
<g filter="url(#filter0_d_105_7661)">
<path d="M200.759 171.151C195.474 180.302 188.439 188.323 180.054 194.755C171.669 201.188 162.099 205.907 151.89 208.642C141.681 211.376 131.034 212.074 120.555 210.695C110.077 209.316 99.9723 205.886 90.8193 200.603L114.964 158.792C118.625 160.905 122.667 162.277 126.858 162.829C131.049 163.38 135.308 163.101 139.392 162.007C143.476 160.913 147.304 159.026 150.658 156.453C154.011 153.88 156.826 150.671 158.939 147.011L200.759 171.151Z" fill="#45F5C0"/>
<path d="M90.8198 200.603C85.7278 197.664 80.9734 194.175 76.6416 190.201L109.293 154.631C111.026 156.221 112.927 157.616 114.964 158.792L90.8198 200.603Z" fill="#DAD9FF"/>
<path d="M76.7605 190.31C73.0665 186.934 69.6955 183.221 66.6914 179.219L105.313 150.238C106.514 151.839 107.863 153.324 109.34 154.675L76.7605 190.31Z" fill="#FFADFF"/>
<path d="M66.7515 179.298C65.5544 177.707 64.4167 176.073 63.3408 174.398L103.973 148.31C104.403 148.98 104.858 149.634 105.337 150.27L66.7515 179.298Z" fill="#FFEDA2"/>
<path d="M63.4008 174.491C54.6925 160.973 50.2342 145.157 50.601 129.083C50.9678 113.009 56.1429 97.4126 65.4587 84.3064L104.82 112.274C101.094 117.516 99.0239 123.754 98.8772 130.184C98.7305 136.614 100.514 142.94 103.997 148.347L63.4008 174.491Z" fill="#7BF3FF"/>
<path d="M65.4541 84.3135C74.7685 71.2063 87.7968 61.1896 102.859 55.5551C117.921 49.9206 134.326 48.9269 149.958 52.702L138.62 99.6316C132.368 98.1216 125.806 98.5191 119.781 100.773C113.756 103.027 108.545 107.033 104.819 112.276L65.4541 84.3135Z" fill="#BE86F9"/>
<path d="M205.116 99.4147C210.001 110.892 212.15 123.347 211.393 135.797C210.637 148.248 206.996 160.351 200.758 171.153L158.939 147.012C161.434 142.692 162.891 137.85 163.193 132.87C163.496 127.89 162.636 122.908 160.683 118.317L205.116 99.4147Z" fill="#6D7FFF"/>
<path d="M149.838 52.8638C162.04 55.8105 173.383 61.5699 182.961 69.6817C192.539 77.7936 200.087 88.0329 205.001 99.5815L160.565 118.481C158.599 113.862 155.58 109.766 151.749 106.521C147.918 103.276 143.381 100.973 138.5 99.7939L149.838 52.8638Z" fill="#FF9B6E"/>
<circle cx="131.04" cy="131.04" r="40.0399" fill="white"/>
</g>
<defs>
<filter id="filter0_d_105_7661" x="0.580078" y="0.452637" width="260.961" height="260.931" filterUnits="userSpaceOnUse" color-interpolation-filters="sRGB">
<feFlood flood-opacity="0" result="BackgroundImageFix"/>
<feColorMatrix in="SourceAlpha" type="matrix" values="0 0 0 0 0 0 0 0 0 0 0 0 0 0 0 0 0 0 127 0" result="hardAlpha"/>
<feOffset/>
<feGaussianBlur stdDeviation="25"/>
<feComposite in2="hardAlpha" operator="out"/>
<feColorMatrix type="matrix" values="0 0 0 0 0.964706 0 0 0 0 0.588235 0 0 0 0 0.12549 0 0 0 0.2 0"/>
<feBlend mode="normal" in2="BackgroundImageFix" result="effect1_dropShadow_105_7661"/>
<feBlend mode="normal" in="SourceGraphic" in2="effect1_dropShadow_105_7661" result="shape"/>
</filter>
</defs>
</svg>
