<svg width="14" height="14" viewBox="0 0 14 14" fill="none" xmlns="http://www.w3.org/2000/svg">
<g clip-path="url(#clip0_105_7643)">
<path d="M13.3389 7.46076C13.1649 7.46076 12.9979 7.5299 12.8749 7.65297C12.7518 7.77604 12.6827 7.94296 12.6827 8.11701V10.7587C12.6821 11.2689 12.4791 11.7581 12.1184 12.1188C11.7576 12.4796 11.2684 12.6826 10.7582 12.6831H3.24086C2.73064 12.6826 2.24148 12.4796 1.8807 12.1188C1.51993 11.7581 1.31699 11.2689 1.31641 10.7587V3.24135C1.31699 2.73113 1.51993 2.24197 1.8807 1.88119C2.24148 1.52041 2.73064 1.31747 3.24086 1.31689H5.88254C6.05659 1.31689 6.22351 1.24775 6.34658 1.12468C6.46965 1.00161 6.53879 0.834693 6.53879 0.660645C6.53879 0.486596 6.46965 0.319676 6.34658 0.196606C6.22351 0.073535 6.05659 0.00439453 5.88254 0.00439453H3.24086C2.38268 0.00540765 1.55993 0.346768 0.953107 0.953595C0.34628 1.56042 0.00491937 2.38317 0.00390625 3.24135V10.7587C0.00491937 11.6169 0.34628 12.4396 0.953107 13.0464C1.55993 13.6533 2.38268 13.9946 3.24086 13.9956H10.7582C11.6164 13.9946 12.4391 13.6533 13.046 13.0464C13.6528 12.4396 13.9941 11.6169 13.9952 10.7587V8.11701C13.9952 7.94296 13.926 7.77604 13.8029 7.65297C13.6799 7.5299 13.513 7.46076 13.3389 7.46076Z" fill="black" fill-opacity="0.5"/>
<path d="M13.3252 5.54466e-08H9.24548C9.07363 -3.28994e-05 8.90863 0.0673406 8.78592 0.187645C8.66322 0.30795 8.59259 0.471587 8.58923 0.643399C8.58239 1.01172 8.8922 1.3125 9.26024 1.3125H11.7575L6.53106 6.54063C6.408 6.66369 6.33887 6.83061 6.33887 7.00465C6.33887 7.17869 6.408 7.3456 6.53106 7.46867C6.65413 7.59173 6.82105 7.66087 6.99509 7.66087C7.16913 7.66087 7.33604 7.59173 7.45911 7.46867L12.6872 2.24219V4.74852C12.6872 4.92256 12.7564 5.08948 12.8794 5.21255C13.0025 5.33563 13.1694 5.40477 13.3435 5.40477C13.5175 5.40477 13.6845 5.33563 13.8075 5.21255C13.9306 5.08948 13.9997 4.92256 13.9997 4.74852V0.674297C13.9997 0.585724 13.9823 0.498019 13.9484 0.416192C13.9145 0.334364 13.8648 0.260018 13.8021 0.1974C13.7395 0.134782 13.6651 0.0851199 13.5833 0.0512493C13.5014 0.0173788 13.4137 -3.58622e-05 13.3252 5.54466e-08Z" fill="black" fill-opacity="0.5"/>
</g>
<defs>
<clipPath id="clip0_105_7643">
<rect width="14" height="14" fill="white"/>
</clipPath>
</defs>
</svg>
