<svg width="29" height="30" viewBox="0 0 29 30" fill="none" xmlns="http://www.w3.org/2000/svg">
<path d="M1.18961 18.4525C1.18961 18.4525 1.16317 18.2123 1.18961 17.8301C1.41434 14.502 4.92416 12.4295 8.02858 13.718C9.39902 14.2879 11.1418 15.358 13.0961 17.3562C13.0961 17.3562 19.7214 24.2091 24.4232 21.7414C24.4232 21.7414 28.3825 20.0598 27.6532 14.4299C27.023 9.55556 23.7688 5.34948 19.1728 3.50195C17.56 2.85335 15.6696 2.43405 13.5456 2.54106C9.64579 2.73979 6.01699 4.68559 3.69694 7.79975C1.94974 10.1474 0.460321 13.6525 1.18961 18.4525Z" stroke="#595FEA" stroke-width="2" stroke-miterlimit="10"/>
<path d="M13.0957 17.3562C13.0957 17.3562 8.2441 16.4368 6.60045 20.9159C5.78304 23.1434 6.85163 25.6417 8.57239 27.2861C9.12761 27.8168 9.78199 28.2798 10.5245 28.5244C10.5245 28.5244 3.4718 27.1529 1.19141 18.4503" stroke="#595FEA" stroke-width="2" stroke-miterlimit="10"/>
<path d="M1.7998 11.3157C1.7998 11.3157 8.23117 5.91505 14.9578 13.6502C14.9578 13.6502 22.5877 22.1956 27.6531 14.4539" stroke="#595FEA" stroke-width="2" stroke-miterlimit="10"/>
<path d="M5.1582 6.17283C5.1582 6.17283 12.0258 4.06761 16.7122 9.15596C17.3489 9.84605 18.0782 10.4488 18.878 10.9445C20.7794 12.1194 23.8023 13.1437 26.4044 10.261" stroke="#595FEA" stroke-width="2" stroke-miterlimit="10"/>
<path d="M7.65447 27.3516C7.65447 27.3516 1.19666 19.2496 8.90593 14.1328" stroke="#595FEA" stroke-width="2" stroke-miterlimit="10"/>
</svg>
